<svg width="256" height="256" viewBox="0 0 256 256" fill="none" xmlns="http://www.w3.org/2000/svg">
<path d="M41.0259 38.3953C38.6312 37.7306 36.151 39.133 35.4862 41.5277C34.8215 43.9225 36.2239 46.4027 38.6186 47.0674L41.0259 38.3953ZM69.1845 83.8585L64.753 84.6408L69.1845 83.8585ZM205.714 203.676C208.2 203.676 210.214 201.661 210.214 199.176C210.214 196.691 208.2 194.676 205.714 194.676V203.676ZM206.987 168.656L202.824 166.947L206.987 168.656ZM83.6261 198.534L81.217 202.335L83.6261 198.534ZM63.6113 52.2879L59.1799 53.0702L63.6113 52.2879ZM38.6186 47.0674L58.8212 52.6753L61.2285 44.0032L41.0259 38.3953L38.6186 47.0674ZM84.7013 176.258H202.361V167.258H84.7013V176.258ZM211.15 170.364L243.111 92.4645L234.785 89.0483L202.824 166.947L211.15 170.364ZM59.1799 53.0702L64.753 84.6408L73.616 83.0762L68.0428 51.5056L59.1799 53.0702ZM64.753 84.6408L80.2698 172.54L89.1328 170.975L73.616 83.0762L64.753 84.6408ZM234.322 79.3585H69.1845V88.3585H234.322V79.3585ZM85.9589 203.676H205.714V194.676H85.9589V203.676ZM84.7013 171.758C82.5723 167.793 82.5711 167.794 82.5698 167.795C82.5694 167.795 82.5681 167.795 82.5671 167.796C82.5652 167.797 82.5632 167.798 82.561 167.799C82.5566 167.802 82.5515 167.804 82.5458 167.808C82.5344 167.814 82.5205 167.821 82.5041 167.83C82.4713 167.848 82.4286 167.872 82.3767 167.901C82.273 167.96 82.1321 168.04 81.9594 168.143C81.6145 168.347 81.1393 168.64 80.5769 169.015C79.4608 169.759 77.9568 170.857 76.4339 172.268C73.5555 174.935 69.7829 179.487 69.7829 185.467H78.7829C78.7829 183.332 80.2196 181.03 82.5503 178.87C83.632 177.868 84.7326 177.061 85.57 176.503C85.9843 176.226 86.323 176.018 86.5479 175.885C86.66 175.819 86.743 175.771 86.7919 175.744C86.8163 175.73 86.8321 175.721 86.8387 175.718C86.842 175.716 86.843 175.715 86.8417 175.716C86.841 175.716 86.8397 175.717 86.8378 175.718C86.8368 175.719 86.8357 175.719 86.8345 175.72C86.8339 175.72 86.8328 175.721 86.8325 175.721C86.8314 175.722 86.8303 175.722 84.7013 171.758ZM69.7829 185.467C69.7829 190.288 72.245 194.164 74.5996 196.802C76.9917 199.481 79.7122 201.381 81.217 202.335L86.0353 194.734C84.8786 194 82.9275 192.616 81.3134 190.808C79.6617 188.958 78.7829 187.144 78.7829 185.467H69.7829ZM243.111 92.4645C245.676 86.2133 241.079 79.3585 234.322 79.3585V88.3585C234.678 88.3585 234.92 88.7193 234.785 89.0483L243.111 92.4645ZM202.361 176.258C206.215 176.258 209.687 173.929 211.15 170.364L202.824 166.947C202.747 167.135 202.564 167.258 202.361 167.258V176.258ZM85.9589 194.676C85.9068 194.676 85.8913 194.669 85.9077 194.674C85.9263 194.679 85.9741 194.695 86.0353 194.734L81.217 202.335C82.7416 203.301 84.4162 203.676 85.9589 203.676V194.676ZM58.8212 52.6753C59.0069 52.7268 59.1464 52.8805 59.1799 53.0702L68.0428 51.5056C67.4065 47.9008 64.7556 44.9823 61.2285 44.0032L58.8212 52.6753Z" fill="black"/>
<ellipse cx="30.5537" cy="41.2723" rx="16.0775" ry="9.64651" transform="rotate(12.207 30.5537 41.2723)" fill="black"/>
<circle cx="95.289" cy="210.554" r="11.1444" stroke="black" stroke-width="9"/>
<circle cx="192" cy="210.554" r="11.1444" stroke="black" stroke-width="9"/>
<line x1="114.952" y1="147.551" x2="103.584" y2="107.967" stroke="#1E90FF" stroke-width="9" stroke-linecap="round"/>
<path d="M185.827 146.63L199.111 109.511" stroke="#1E90FF" stroke-width="9" stroke-linecap="round"/>
<line x1="151.242" y1="146.286" x2="149.934" y2="107.048" stroke="#1E90FF" stroke-width="9" stroke-linecap="round"/>
</svg>
